<?xml version="1.0" encoding="UTF-8" standalone="no"?>
<svg
   xmlns:dc="http://purl.org/dc/elements/1.1/"
   xmlns:cc="http://creativecommons.org/ns#"
   xmlns:rdf="http://www.w3.org/1999/02/22-rdf-syntax-ns#"
   xmlns:svg="http://www.w3.org/2000/svg"
   xmlns="http://www.w3.org/2000/svg"
   xmlns:sodipodi="http://sodipodi.sourceforge.net/DTD/sodipodi-0.dtd"
   xmlns:inkscape="http://www.inkscape.org/namespaces/inkscape"
   width="78.394928mm"
   height="99.624161mm"
   viewBox="0 0 78.394928 99.624163"
   version="1.1"
   id="svg8"
   inkscape:version="1.0.2-2 (e86c870879, 2021-01-15)"
   sodipodi:docname="ld-outline.svg">
  <defs
     id="defs2" />
  <sodipodi:namedview
     id="base"
     pagecolor="#ffffff"
     bordercolor="#666666"
     borderopacity="1.0"
     inkscape:pageopacity="0.0"
     inkscape:pageshadow="2"
     inkscape:zoom="1.979899"
     inkscape:cx="277.67559"
     inkscape:cy="290.57127"
     inkscape:document-units="mm"
     inkscape:current-layer="layer1"
     inkscape:document-rotation="0"
     showgrid="false"
     inkscape:window-width="1918"
     inkscape:window-height="1511"
     inkscape:window-x="-8"
     inkscape:window-y="0"
     inkscape:window-maximized="0" />
  <metadata
     id="metadata5">
    <rdf:RDF>
      <cc:Work
         rdf:about="">
        <dc:format>image/svg+xml</dc:format>
        <dc:type
           rdf:resource="http://purl.org/dc/dcmitype/StillImage" />
        <dc:title></dc:title>
      </cc:Work>
    </rdf:RDF>
  </metadata>
  <g
     inkscape:label="Layer 1"
     inkscape:groupmode="layer"
     id="layer1"
     transform="translate(54.108328,225.32219)">
    <path
       style="fill:#000000;stroke-width:0.0846667"
       d="m 0.00123385,-127.14321 c -3.25737305,-1.33327 -17.28518685,-7.02371 -28.10933485,-11.40266 -6.087144,-2.46257 -11.764709,-4.77555 -15.621,-6.3638 -10.432013,-4.29654 -10.157951,-4.17664 -10.293382,-4.5036 -0.209898,-0.50673 0.0048,-66.00025 0.219367,-66.93322 0.05399,-0.23471 0.379637,-0.40554 0.924307,-0.48488 0.430403,-0.0627 5.119376,-1.37725 17.828041,-4.99809 11.322162,-3.2258 12.380551,-3.52341 12.413434,-3.49053 0.01688,0.0169 -1.330957,0.53119 -2.995201,1.14289 -1.664245,0.6117 -3.959349,1.45779 -5.100233,1.88019 -1.140883,0.4224 -2.874433,0.99829 -3.852333,1.27976 -0.9779,0.28147 -4.04495,1.1802 -6.815667,1.99718 -2.770716,0.81698 -6.176704,1.80346 -7.56886,2.19216 -1.392158,0.38871 -2.573258,0.72194 -2.624667,0.74052 -0.09888,0.0357 0.01349,0.0675 1.557527,0.43963 0.535517,0.12908 1.735667,0.4406 2.667,0.69226 5.15517,1.39299 14.879167,3.99592 19.346334,5.17864 4.649126,1.2309 7.548407,1.99084 22.8176668,5.98085 8.44305,2.20626 7.814574,2.09328 9.36701,1.68376 1.74346,-0.45991 5.025332,-1.41788 10.8203502,-3.15844 2.95388,-0.88721 5.383295,-1.60051 5.3987,-1.5851 0.01541,0.0154 -1.125057,0.48754 -2.534358,1.04919 -1.789243,0.71306 -3.62252,1.35772 -6.076034,2.1366 -6.2319422,1.97836 -7.9678872,2.58533 -8.2338342,2.87897 l -0.232833,0.25707 0.0018,1.8825 c 9.65e-4,1.03537 0.03753,3.3684 0.08124,5.1845 0.04371,1.8161 0.119926,6.36905 0.169359,10.11767 0.04943,3.74861 0.16491,11.33051 0.256613,16.84866 0.0917,5.51815 0.205327,12.8524 0.252497,16.29834 0.04717,3.44593 0.124937,8.34178 0.172819,10.87967 0.04788,2.53788 0.101475,6.26635 0.119098,8.28548 0.01876,2.14996 0.06525,3.70436 0.112186,3.75129 0.1219,0.1219 2.440255,-0.73349 7.8514252,-2.89691 6.311699,-2.52345 11.787539,-4.65253 11.965989,-4.65253 0.02666,0 -1.530827,0.7852 -3.461088,1.74488 -3.227218,1.6045 -3.873983,1.88983 -8.039233,3.54661 -4.9267642,1.95968 -7.3481632,2.99473 -8.2274702,3.5169 -0.324211,0.19254 -0.667109,0.33266 -0.804333,0.32869 -0.131558,-0.004 -1.820348,-0.6541 -3.75286395,-1.4451 z m 3.10546395,-9.36415 c -0.05653,-9.17516 -0.158215,-21.48402 -0.317734,-38.45983 -0.0695,-7.39649 -0.183605,-25.08422 -0.165852,-25.70995 0.0081,-0.28424 -0.494169,-0.42821 -11.765879,-3.37277 -21.5696058,-5.63474 -31.7851628,-8.31445 -39.5180908,-10.36625 -2.293366,-0.6085 -4.190956,-1.10637 -4.216867,-1.10637 -0.02591,0 -0.02499,0.60008 0.002,1.3335 0.190048,5.15594 0.218755,9.77907 0.221245,35.63065 l 0.0027,28.37048 4.545969,1.8054 c 4.120323,1.63635 19.679576,7.96402 30.45397,12.38509 2.328333,0.95539 6.728883,2.75584 9.7789998,4.00101 3.050117,1.24517 6.726767,2.75125 8.17033405,3.34685 1.44356595,0.59559 2.67858195,1.08578 2.74447795,1.0893 0.102919,0.005 0.112035,-1.25602 0.06465,-8.94711 z"
       id="path24" />
  </g>
</svg>
