<?xml version="1.0" encoding="UTF-8" standalone="no"?>
<svg
   xmlns:dc="http://purl.org/dc/elements/1.1/"
   xmlns:cc="http://creativecommons.org/ns#"
   xmlns:rdf="http://www.w3.org/1999/02/22-rdf-syntax-ns#"
   xmlns:svg="http://www.w3.org/2000/svg"
   xmlns="http://www.w3.org/2000/svg"
   xmlns:sodipodi="http://sodipodi.sourceforge.net/DTD/sodipodi-0.dtd"
   xmlns:inkscape="http://www.inkscape.org/namespaces/inkscape"
   version="1.1"
   id="svg30"
   width="108"
   height="164"
   viewBox="0 0 108 164"
   sodipodi:docname="logo2.svg"
   inkscape:version="1.0.2-2 (e86c870879, 2021-01-15)">
  <metadata
     id="metadata36">
    <rdf:RDF>
      <cc:Work
         rdf:about="">
        <dc:format>image/svg+xml</dc:format>
        <dc:type
           rdf:resource="http://purl.org/dc/dcmitype/StillImage" />
        <dc:title></dc:title>
      </cc:Work>
    </rdf:RDF>
  </metadata>
  <defs
     id="defs34" />
  <sodipodi:namedview
     pagecolor="#ffffff"
     bordercolor="#666666"
     borderopacity="1"
     objecttolerance="10"
     gridtolerance="10"
     guidetolerance="10"
     inkscape:pageopacity="0"
     inkscape:pageshadow="2"
     inkscape:window-width="1918"
     inkscape:window-height="1511"
     id="namedview32"
     showgrid="false"
     inkscape:zoom="6.1463415"
     inkscape:cx="65.659512"
     inkscape:cy="78.563164"
     inkscape:window-x="-8"
     inkscape:window-y="0"
     inkscape:window-maximized="0"
     inkscape:current-layer="g54" />
  <g
     inkscape:groupmode="layer"
     inkscape:label="Image"
     id="g38">
    <g
       id="g54"
       transform="translate(15.456349,-0.81349209)">
      <path
         style="fill:#333333;fill-opacity:1"
         d="M 28.684856,152.24265 C 25.548703,147.27236 21.932877,141.24695 20.649687,138.85287 16.366465,130.86155 13.898528,126.63968 0.27608203,104 -7.1700369,91.625 -13.405591,81.23065 -13.580704,80.901444 c -0.175114,-0.329206 0.464984,-1.454206 1.422441,-2.5 0.957456,-1.045794 3.6560618,-4.950346 5.9969008,-8.676781 2.3408392,-3.726435 4.8971042,-7.551435 5.68059023,-8.5 C 0.30271303,60.276098 4.324543,54.325 8.456628,48 12.588713,41.675 16.3353,36.05 16.782377,35.5 c 0.447077,-0.55 1.899826,-2.8 3.228332,-5 1.328505,-2.2 2.716903,-4.225 3.085328,-4.5 0.368425,-0.275 2.388225,-3.2 4.488445,-6.5 2.100219,-3.3 4.297534,-6.53115 4.882922,-7.180333 0.585388,-0.649184 2.167305,-3.0116836 3.51537,-5.2500003 C 37.33084,4.83135 38.689968,3 39.003058,3 39.687801,3 56.393597,30.76077 56.85507,32.665488 57.032898,33.39947 57.524537,34 57.9476,34 c 0.423063,0 1.627567,1.6875 2.676675,3.75 1.049109,2.0625 2.161007,3.975 2.470885,4.25 0.309877,0.275 3.141774,4.775 6.293103,10 3.15133,5.225 6.143321,10.175 6.64887,11 0.899664,1.468154 12.948243,21.395529 14.289793,23.634171 0.54004,0.901147 -6.139836,10.727088 -12.290785,18.079469 -0.558428,0.66751 -2.028088,2.70604 -3.26591,4.53007 -1.237821,1.82403 -4.985556,6.67789 -8.3283,10.78636 C 63.099187,124.13853 56.818655,132.225 52.485194,138 c -4.333462,5.775 -8.345767,11.02363 -8.916235,11.66363 -0.570467,0.64 -2.162213,2.63594 -3.537213,4.43542 -6.134378,8.02817 -4.992014,8.21506 -11.34689,-1.8564 z M 84.718508,90.353429 c -0.441424,-0.441425 -39.005429,11.171591 -45.936762,13.833211 -2.64849,1.01702 -2.75,1.32245 -2.75,8.27437 0,3.97011 -0.289049,15.50301 -0.642331,25.62868 L 34.747084,156.5 59.980692,123.67461 C 73.859177,105.62065 84.991194,90.626115 84.718508,90.353429 Z M 34.913612,116.68958 35.031746,104.87917 13.386343,94.418319 C 1.481371,88.664854 -8.3775212,84.079541 -8.522307,84.228736 -8.6670928,84.377931 0.73583903,100.36873 12.373096,119.76384 l 21.15865,35.26384 0.631866,-13.26384 c 0.347526,-7.29511 0.685026,-18.57853 0.75,-25.07426 z m 6.321081,-14.60097 c 1.263379,-0.50127 7.472053,-2.500478 13.797053,-4.442693 6.325,-1.942215 16.344959,-5.019589 22.266575,-6.838608 L 88.064896,87.5 64.305157,49.038587 40.545418,10.577174 39.827023,15.538587 C 39.431906,18.267364 38.616949,33.55 38.016007,49.5 37.415066,65.45 36.553907,80.975 36.102322,84 34.8946,92.090073 34.935324,88.236436 36.487867,47.516435 37.263413,27.175475 37.815554,10.456595 37.714848,10.363368 37.487396,10.15281 -8.3467835,77.853115 -8.7884492,79.052008 -9.1120453,79.930403 35.507522,102.84709 37.734693,102.94637 c 0.661621,0.0295 2.236621,-0.3565 3.5,-0.85776 z"
         id="path56" />
    </g>
  </g>
</svg>
